<svg width="25" height="24" viewBox="0 0 25 24" fill="none" xmlns="http://www.w3.org/2000/svg">
<mask id="mask0_1_158" style="mask-type:alpha" maskUnits="userSpaceOnUse" x="0" y="0" width="25" height="24">
<rect x="0.5" width="24" height="24" fill="#D9D9D9"/>
</mask>
<g mask="url(#mask0_1_158)">
<path d="M5.5 21C4.95 21 4.479 20.8043 4.087 20.413C3.69567 20.021 3.5 19.55 3.5 19V15H5.5V19H19.5V5H5.5V9H3.5V5C3.5 4.45 3.69567 3.979 4.087 3.587C4.479 3.19567 4.95 3 5.5 3H19.5C20.05 3 20.521 3.19567 20.913 3.587C21.3043 3.979 21.5 4.45 21.5 5V19C21.5 19.55 21.3043 20.021 20.913 20.413C20.521 20.8043 20.05 21 19.5 21H5.5ZM11 17L9.6 15.55L12.15 13H3.5V11H12.15L9.6 8.45L11 7L16 12L11 17Z" fill="black" fill-opacity="0.54"/>
</g>
</svg>
