<svg width="20" height="21" viewBox="0 0 20 21" fill="none" xmlns="http://www.w3.org/2000/svg">
<mask id="mask0_1_119" style="mask-type:alpha" maskUnits="userSpaceOnUse" x="0" y="0" width="20" height="21">
<rect y="0.5" width="20" height="20" fill="#D9D9D9"/>
</mask>
<g mask="url(#mask0_1_119)">
<path d="M9.375 10.438C9.73633 10.0207 10.014 9.562 10.208 9.062C10.4027 8.562 10.5 8.04133 10.5 7.5C10.5 6.972 10.4027 6.458 10.208 5.958C10.014 5.458 9.73633 4.99267 9.375 4.562C9.48633 4.53467 9.59067 4.51733 9.688 4.51C9.78467 4.50333 9.88867 4.5 10 4.5C10.8333 4.5 11.5417 4.79167 12.125 5.375C12.7083 5.95833 13 6.66667 13 7.5C13 8.33333 12.7083 9.04167 12.125 9.625C11.5417 10.2083 10.8333 10.5 10 10.5C9.88867 10.5 9.781 10.4967 9.677 10.49C9.573 10.4827 9.47233 10.4653 9.375 10.438ZM13.5 16.5V14.583C13.5 14.0137 13.368 13.4827 13.104 12.99C12.84 12.4967 12.472 12.0763 12 11.729C12.9447 11.951 13.8473 12.2567 14.708 12.646C15.5693 13.0347 16 13.6803 16 14.583V16.5H13.5ZM16.25 11.5V9.75H14.5V8.25H16.25V6.5H17.75V8.25H19.5V9.75H17.75V11.5H16.25ZM6 10.5C5.16667 10.5 4.45833 10.2083 3.875 9.625C3.29167 9.04167 3 8.33333 3 7.5C3 6.66667 3.29167 5.95833 3.875 5.375C4.45833 4.79167 5.16667 4.5 6 4.5C6.83333 4.5 7.54167 4.79167 8.125 5.375C8.70833 5.95833 9 6.66667 9 7.5C9 8.33333 8.70833 9.04167 8.125 9.625C7.54167 10.2083 6.83333 10.5 6 10.5ZM0 16.5V14.583C0 14.2357 0.0866667 13.913 0.26 13.615C0.434 13.3163 0.673667 13.0697 0.979 12.875C1.729 12.403 2.531 12.0557 3.385 11.833C4.23967 11.611 5.11133 11.5 6 11.5C6.87467 11.5 7.73567 11.618 8.583 11.854C9.43033 12.09 10.243 12.4303 11.021 12.875C11.3123 13.0697 11.5483 13.3163 11.729 13.615C11.9097 13.913 12 14.2357 12 14.583V16.5H0ZM6 9C6.40267 9 6.75333 8.854 7.052 8.562C7.35067 8.27067 7.5 7.91667 7.5 7.5C7.5 7.09733 7.35067 6.74667 7.052 6.448C6.75333 6.14933 6.40267 6 6 6C5.58333 6 5.22933 6.14933 4.938 6.448C4.646 6.74667 4.5 7.09733 4.5 7.5C4.5 7.91667 4.646 8.27067 4.938 8.562C5.22933 8.854 5.58333 9 6 9ZM1.5 15H10.5V14.583C10.5 14.4997 10.4793 14.4233 10.438 14.354C10.396 14.2847 10.3403 14.2223 10.271 14.167C9.60433 13.8057 8.91333 13.5207 8.198 13.312C7.48267 13.104 6.75 13 6 13C5.236 13 4.49633 13.1007 3.781 13.302C3.06567 13.5033 2.38167 13.7917 1.729 14.167C1.65967 14.2223 1.604 14.2847 1.562 14.354C1.52067 14.4233 1.5 14.4997 1.5 14.583V15Z" fill="black" fill-opacity="0.54"/>
</g>
</svg>
