<svg width="25" height="24" viewBox="0 0 25 24" fill="none" xmlns="http://www.w3.org/2000/svg">
<mask id="mask0_1_163" style="mask-type:alpha" maskUnits="userSpaceOnUse" x="0" y="0" width="25" height="24">
<rect x="0.5" width="24" height="24" fill="#D9D9D9"/>
</mask>
<g mask="url(#mask0_1_163)">
<path d="M6.5 23C5.95 23 5.47933 22.8043 5.088 22.413C4.696 22.021 4.5 21.55 4.5 21V10C4.5 9.45 4.696 8.979 5.088 8.587C5.47933 8.19567 5.95 8 6.5 8H9.5V10H6.5V21H18.5V10H15.5V8H18.5C19.05 8 19.521 8.19567 19.913 8.587C20.3043 8.979 20.5 9.45 20.5 10V21C20.5 21.55 20.3043 22.021 19.913 22.413C19.521 22.8043 19.05 23 18.5 23H6.5ZM11.5 16V4.825L9.9 6.425L8.5 5L12.5 1L16.5 5L15.1 6.425L13.5 4.825V16H11.5Z" fill="black" fill-opacity="0.54"/>
</g>
</svg>
