<svg width="20" height="21" viewBox="0 0 20 21" fill="none" xmlns="http://www.w3.org/2000/svg">
<mask id="mask0_1_109" style="mask-type:alpha" maskUnits="userSpaceOnUse" x="0" y="0" width="20" height="21">
<rect y="0.5" width="20" height="20" fill="#D9D9D9"/>
</mask>
<g mask="url(#mask0_1_109)">
<path d="M14.75 11.5V9.75H13V8.25H14.75V6.5H16.25V8.25H18V9.75H16.25V11.5H14.75ZM8 10.5C7.16667 10.5 6.45833 10.2083 5.875 9.625C5.29167 9.04167 5 8.33333 5 7.5C5 6.66667 5.29167 5.95833 5.875 5.375C6.45833 4.79167 7.16667 4.5 8 4.5C8.83333 4.5 9.54167 4.79167 10.125 5.375C10.7083 5.95833 11 6.66667 11 7.5C11 8.33333 10.7083 9.04167 10.125 9.625C9.54167 10.2083 8.83333 10.5 8 10.5ZM2 16.5V14.583C2 14.2223 2.08667 13.8927 2.26 13.594C2.434 13.2953 2.67367 13.0557 2.979 12.875C3.743 12.4303 4.54867 12.09 5.396 11.854C6.24333 11.618 7.11133 11.5 8 11.5C8.88867 11.5 9.75667 11.618 10.604 11.854C11.4513 12.09 12.257 12.4303 13.021 12.875C13.3263 13.0557 13.566 13.2953 13.74 13.594C13.9133 13.8927 14 14.2223 14 14.583V16.5H2ZM3.5 15H12.5V14.583C12.5 14.4997 12.4793 14.42 12.438 14.344C12.396 14.2673 12.3403 14.2083 12.271 14.167C11.6183 13.7917 10.9307 13.5033 10.208 13.302C9.486 13.1007 8.75 13 8 13C7.25 13 6.514 13.1007 5.792 13.302C5.06933 13.5033 4.38167 13.7917 3.729 14.167C3.65967 14.2083 3.604 14.2673 3.562 14.344C3.52067 14.42 3.5 14.4997 3.5 14.583V15ZM8 9C8.41667 9 8.77067 8.854 9.062 8.562C9.354 8.27067 9.5 7.91667 9.5 7.5C9.5 7.08333 9.354 6.72933 9.062 6.438C8.77067 6.146 8.41667 6 8 6C7.58333 6 7.22933 6.146 6.938 6.438C6.646 6.72933 6.5 7.08333 6.5 7.5C6.5 7.91667 6.646 8.27067 6.938 8.562C7.22933 8.854 7.58333 9 8 9Z" fill="black" fill-opacity="0.54"/>
</g>
</svg>
